<svg id="Layer_1" enable-background="new 0 0 512 512" height="512" viewBox="0 0 512 512" width="512" xmlns="http://www.w3.org/2000/svg"><g><g><g><path d="m40 101.606h29.333v312h-29.333z" fill="#ff8caf"/></g><g><path d="m69.333 101.606h26.667v312h-26.667z" fill="#ff6e91"/></g><g><path d="m96 101.606h29.333v312h-29.333z" fill="#e64178"/></g><g><path d="m82.667 413.606v48h-10.667l-32-48z" fill="#fab991"/></g><g><path d="m82.667 413.606v48h10.666l32-48z" fill="#f0915a"/></g><g><path d="m72 461.606 7.338 11.008c1.583 2.375 5.073 2.375 6.656 0l7.338-11.008z" fill="#353744"/></g><g><path d="m40 77.606h85.333v24h-85.333z" fill="#a5c3dc"/></g><g><path d="m40 77.606h42.667v24h-42.667z" fill="#d7e6f0"/></g><g><path d="m109.333 37.606h-53.333c-8.837 0-16 7.163-16 16v24h85.333v-24c0-8.837-7.163-16-16-16z" fill="#463c4b"/></g><g><path d="m82.667 37.606h-26.667c-8.837 0-16 7.163-16 16v24h42.667z" fill="#555a6e"/></g></g><g><path d="m440 469.606h-240c-17.673 0-32-14.327-32-32v-368c0-17.673 14.327-32 32-32h192l80 72v328c0 17.673-14.327 32-32 32z" fill="#d7e6f0"/></g><g><path d="m392 37.606v40c0 17.673 14.327 32 32 32h48z" fill="#a5c3dc"/></g><g><g><path d="m384 405.605h-128c-13.233 0-24-10.767-24-24v-56h16v56c0 4.411 3.589 8 8 8h128c4.411 0 8-3.589 8-8v-56h16v56c0 13.234-10.767 24-24 24z" fill="#555a6e"/></g><path d="m384 205.605h-56v-64h-16v64h-56c-13.233 0-24 10.767-24 24v48h16v-48c0-4.411 3.589-8 8-8h128c4.411 0 8 3.589 8 8v48h16v-48c0-13.233-10.767-24-24-24z" fill="#555a6e"/><g><path d="m336 141.606h-32c-17.673 0-32-14.327-32-32 0-17.673 14.327-32 32-32h32c17.673 0 32 14.327 32 32 0 17.673-14.327 32-32 32z" fill="#00d2d2"/></g><g><path d="m336 429.606h-32c-17.673 0-32-14.327-32-32 0-17.673 14.327-32 32-32h32c17.673 0 32 14.327 32 32 0 17.673-14.327 32-32 32z" fill="#00d2d2"/></g><g><path d="m320 168.272c3.415 0 6.69 1.357 9.105 3.771l32.458 32.458c2.415 2.415 3.771 5.69 3.771 9.105 0 3.415-1.357 6.69-3.771 9.105l-32.458 32.458c-2.415 2.415-5.69 3.771-9.105 3.771-3.415 0-6.69-1.357-9.105-3.771l-32.458-32.458c-2.415-2.415-3.771-5.69-3.771-9.105 0-3.415 1.357-6.69 3.771-9.105l32.458-32.458c2.415-2.414 5.69-3.771 9.105-3.771z" fill="#fa9b37"/></g><g><path d="m280 325.606h-80c-4.418 0-8-3.582-8-8v-32c0-4.418 3.582-8 8-8h80c4.418 0 8 3.582 8 8v32c0 4.418-3.582 8-8 8z" fill="#ffd241"/></g><g><path d="m440 325.606h-80c-4.418 0-8-3.582-8-8v-32c0-4.418 3.582-8 8-8h80c4.418 0 8 3.582 8 8v32c0 4.418-3.582 8-8 8z" fill="#ffd241"/></g></g></g></svg>