<svg id="filled_outline" height="512" viewBox="0 0 512 512" width="512" xmlns="http://www.w3.org/2000/svg" data-name="filled outline"><path d="m340 44h136v128h-136z" fill="#548aff" transform="matrix(0 -1 1 0 300 516)"/><rect fill="#548aff" height="48" rx="24" width="80" x="160" y="272"/><path d="m176 208-22.00489-27.50611a45.61243 45.61243 0 0 1 -9.99511-28.49389 45.61243 45.61243 0 0 1 9.99511-28.49387l22.00489-27.50613 48-32h120v88h-32a79.99993 79.99993 0 0 1 -64 32l-5.17285 25.86427a17.5843 17.5843 0 0 1 -17.24282 14.13573h-17.58433z" fill="#f5c99d"/><path d="m224 88v160l-24 32-24-32v-160z" fill="#f6bb00"/><path d="m176 56h48v32h-48z" fill="#eda600"/><path d="m184 24h32v32h-32z" fill="#de9400"/><rect fill="#548aff" height="48" rx="24" width="80" x="392" y="280"/><path d="m200 432 48-32-48-32-48 32z" fill="#548aff"/><path d="m400 376a35.777 35.777 0 0 1 32 0l2.74519 1.37259a35.777 35.777 0 0 0 27.3137 1.94113l9.94111-3.31372v48h-72z" fill="#f6bb00"/><path d="m120 376h-64l-16 40h64z" fill="#f6bb00"/><path d="m280 376h64v48h-64z" fill="#02c26a"/><path d="m256 104-36.4859 30.40492a32 32 0 0 0 -11.5141 24.58308v47.42771a17.5843 17.5843 0 0 0 17.58429 17.58429 17.5843 17.5843 0 0 0 17.24282-14.13573l5.17289-25.86427a79.99993 79.99993 0 0 0 64-32v-48z" fill="#f5c99d"/><path d="m40 424h32v32a24.02687 24.02687 0 0 0 24 24h88a24.02687 24.02687 0 0 0 24-24v-19.71875l42.42188-28.28125h21.57812v16a7.99977 7.99977 0 0 0 8 8h64a7.99977 7.99977 0 0 0 8-8v-16h40v16a7.99977 7.99977 0 0 0 8 8h72a7.99977 7.99977 0 0 0 8-8v-48a8 8 0 0 0 -10.52979-7.58936l-9.9414 3.31348a27.57276 27.57276 0 0 1 -19.52881-.74341v-34.98071h8a32 32 0 0 0 0-64h-32a32 32 0 0 0 0 64h8v28.98846a43.96661 43.96661 0 0 0 -27.57764 3.85627 7.99924 7.99924 0 0 0 -4.42236 7.15527v16h-40v-16a7.99977 7.99977 0 0 0 -8-8h-64a7.99977 7.99977 0 0 0 -8 8v16h-21.57812l-45.9844-30.65625a7.99771 7.99771 0 0 0 -8.875 0l-45.98436 30.65625h-27.36193l5.21154-13.02881a8.00009 8.00009 0 0 0 -7.42773-10.97119h-32v-56a8.00917 8.00917 0 0 1 8-8h57.01257a32.05717 32.05717 0 0 0 30.98743 24h32a31.99625 31.99625 0 0 0 5.6214-63.49548l8.7785-11.70472a7.99948 7.99948 0 0 0 1.6001-4.7998v-16.8302a25.66618 25.66618 0 0 0 18.67188-19.73669l3.937-19.68555a88.538 88.538 0 0 0 61.27149-31.74756h20.11963v16a7.99977 7.99977 0 0 0 8 8h128a7.99977 7.99977 0 0 0 8-8v-136a7.99977 7.99977 0 0 0 -8-8h-128a7.99977 7.99977 0 0 0 -8 8v16h-104a7.99977 7.99977 0 0 0 -8-8v-24a7.99977 7.99977 0 0 0 -8-8h-32a7.99977 7.99977 0 0 0 -8 8v24a7.99977 7.99977 0 0 0 -8 8v37.1936l-20.25195 25.31519a53.61221 53.61221 0 0 0 0 66.98242l20.25195 25.31519v37.1936a7.99948 7.99948 0 0 0 1.6001 4.7998l8.7785 11.70472a32.09314 32.09314 0 0 0 -25.36603 23.49548h-57.01257a24.02687 24.02687 0 0 0 -24 24v56h-16a8.00024 8.00024 0 0 0 -7.42773 5.02881l-16 40a8.00009 8.00009 0 0 0 7.42773 10.97119zm360-120a16.01833 16.01833 0 0 1 16-16h32a16 16 0 0 1 0 32h-32a16.01833 16.01833 0 0 1 -16-16zm8 77.40527a27.93053 27.93053 0 0 1 20.42236 1.75l2.74463 1.37256a43.479 43.479 0 0 0 32.83301 2.5669v28.90527h-56zm-120 2.59473h48v32h-48zm-104-138.6665v-149.3335h32v30.91974l-1.60742 1.33954a39.89291 39.89291 0 0 0 -14.39258 30.72851v47.42774a25.62009 25.62009 0 0 0 16 23.71478v15.20319l-16 21.333zm32-181.3335v16h-32v-16zm136-16h112v120h-112zm-16 24v72h-24a7.99927 7.99927 0 0 0 -6.3999 3.2002 72.34587 72.34587 0 0 1 -57.6001 28.7998 8.00041 8.00041 0 0 0 -7.84473 6.43115l-5.17285 25.86426a9.58428 9.58428 0 0 1 -18.98242-1.87988v-47.42774a23.93478 23.93478 0 0 1 8.63574-18.437l36.48584-30.40479-10.24316-12.292-18.87842 15.73224v-41.58624zm-144-40h16v16h-16zm-31.75781 143.49609a37.61136 37.61136 0 0 1 0-46.99218l7.75781-9.69733v66.38684zm23.75781 104.50391h6.00024l3.59986 4.7998a7.9995 7.9995 0 0 0 12.7998 0l3.59986-4.7998h6.00024a16 16 0 0 1 0 32h-32a16 16 0 0 1 0-32zm16 97.61475 33.57764 22.38525-33.57764 22.38525-33.57764-22.38525zm-88.57227 41.35644 4.38849-10.97119h33.7619l42.42188 28.28125v19.71875a8.00917 8.00917 0 0 1 -8 8h-88a8.00917 8.00917 0 0 1 -8-8v-32h16a8.00024 8.00024 0 0 0 7.42773-5.02881zm-50.01123-34.97119h46.76709l-9.60009 24h-46.76709z"/></svg>