<svg height="480pt" viewBox="0 0 480 480" width="480pt" xmlns="http://www.w3.org/2000/svg"><path d="m8 72h464v240h-464zm0 0" fill="#5aaae7"/><path d="m472 72v240h-464c209.953125-26.503906 369.542969-101.734375 464-240zm0 0" fill="#3d9ae2"/><path d="m328 440c8.824219.027344 15.972656 7.175781 16 16-.066406 8.808594-7.191406 15.933594-16 16h-176c-8.824219-.027344-15.972656-7.175781-16-16 .066406-8.808594 7.191406-15.933594 16-16zm0 0" fill="#787680"/><path d="m304 440h-128l8-64h112zm0 0" fill="#898890"/><path d="m472 312v32c-.050781 17.652344-14.347656 31.949219-32 32h-400c-17.652344-.050781-31.949219-14.347656-32-32v-32zm0 0" fill="#c6c5ca"/><path d="m472 40v32h-464v-32c.050781-17.652344 14.347656-31.949219 32-32h400c17.671875 0 32 14.328125 32 32zm0 0" fill="#ff5023"/><path d="m298 392h-116l2-16h112zm0 0" fill="#787680"/><g fill="#00ccb3"><path d="m336 232h32c4.417969 0 8 3.582031 8 8v32c0 4.417969-3.582031 8-8 8h-32c-4.417969 0-8-3.582031-8-8v-32c0-4.417969 3.582031-8 8-8zm0 0"/><path d="m224 232h32c4.417969 0 8 3.582031 8 8v32c0 4.417969-3.582031 8-8 8h-32c-4.417969 0-8-3.582031-8-8v-32c0-4.417969 3.582031-8 8-8zm0 0"/><path d="m112 232h32c4.417969 0 8 3.582031 8 8v32c0 4.417969-3.582031 8-8 8h-32c-4.417969 0-8-3.582031-8-8v-32c0-4.417969 3.582031-8 8-8zm0 0"/></g><path d="m224 104h32c4.417969 0 8 3.582031 8 8v32c0 4.417969-3.582031 8-8 8h-32c-4.417969 0-8-3.582031-8-8v-32c0-4.417969 3.582031-8 8-8zm0 0" fill="#ff9811"/><path d="m224 160h32c8.835938 0 16-7.164062 16-16v-32c0-8.835938-7.164062-16-16-16h-32c-8.835938 0-16 7.164062-16 16v32c0 8.835938 7.164062 16 16 16zm0-48h32v32h-32zm0 0"/><path d="m256 224h-32c-8.835938 0-16 7.164062-16 16v32c0 8.835938 7.164062 16 16 16h32c8.835938 0 16-7.164062 16-16v-32c0-8.835938-7.164062-16-16-16zm-32 48v-32h32v32zm0 0"/><path d="m320 240v32c0 8.835938 7.164062 16 16 16h32c8.835938 0 16-7.164062 16-16v-32c0-8.835938-7.164062-16-16-16h-32c-8.835938 0-16 7.164062-16 16zm48 32h-32v-32h32zm0 0"/><path d="m112 288h32c8.835938 0 16-7.164062 16-16v-32c0-8.835938-7.164062-16-16-16h-32c-8.835938 0-16 7.164062-16 16v32c0 8.835938 7.164062 16 16 16zm0-48h32v32h-32zm0 0"/><path d="m136 200h96v8h16v-8h96v8h16v-16c0-4.417969-3.582031-8-8-8h-104v-8h-16v8h-104c-4.417969 0-8 3.582031-8 8v16h16zm0 0"/><path d="m440 0h-400c-22.082031.0273438-39.9726562 17.917969-40 40v304c.0273438 22.082031 17.917969 39.972656 40 40h134.9375l-6 48h-16.9375c-13.253906 0-24 10.746094-24 24s10.746094 24 24 24h176c13.253906 0 24-10.746094 24-24s-10.746094-24-24-24h-16.9375l-6-48h134.9375c22.082031-.027344 39.972656-17.917969 40-40v-304c-.027344-22.082031-17.917969-39.9726562-40-40zm-400 16h400c13.253906 0 24 10.746094 24 24v24h-448v-24c0-13.253906 10.746094-24 24-24zm424 64v224h-448v-224zm-128 376c0 4.417969-3.582031 8-8 8h-176c-4.417969 0-8-3.582031-8-8s3.582031-8 8-8h176c4.417969 0 8 3.582031 8 8zm-41.0625-24h-109.875l6-48h97.875zm145.0625-64h-400c-13.253906 0-24-10.746094-24-24v-24h448v24c0 13.253906-10.746094 24-24 24zm0 0"/><path d="m416 336h16v16h-16zm0 0"/><path d="m48 32h16v16h-16zm0 0"/><path d="m80 32h16v16h-16zm0 0"/><path d="m112 32h16v16h-16zm0 0"/></svg>