<svg id="filled_outline" height="512" viewBox="0 0 512 512" width="512" xmlns="http://www.w3.org/2000/svg" data-name="filled outline"><path d="m392 368 13.60761-6.8038a41.12663 41.12663 0 0 1 36.78478 0 41.12664 41.12664 0 0 0 28.36707 3.11392l17.24054-4.31012v64h-96z" fill="#fac623"/><path d="m400 208h88v64h-88z" fill="#02c26a"/><rect fill="#548aff" height="64" rx="32" width="112" x="200" y="360"/><rect fill="#548aff" height="64" rx="32" width="112" x="208" y="88"/><path d="m136 208h-96l-16 64h96z" fill="#fac623"/><path d="m264 288 72-48-72-48-72 48z" fill="#548aff"/><path d="m488 200h-88a8.00039 8.00039 0 0 0 -8 8v24h-53.57812l-69.98438-46.65625a8.00131 8.00131 0 0 0 -8.875 0l-69.98438 46.65625h-51.33227l5.51489-22.05957a8 8 0 0 0 -7.76074-9.94043h-48v-64a8.00917 8.00917 0 0 1 8-8h104.80493a40.06838 40.06838 0 0 0 39.19507 32h48a40 40 0 0 0 0-80h-48a40.06838 40.06838 0 0 0 -39.19507 32h-104.80493a24.0275 24.0275 0 0 0 -24 24v64h-32a7.99866 7.99866 0 0 0 -7.76074 6.05957l-16 64a8 8 0 0 0 7.76074 9.94043h48v32a24.0275 24.0275 0 0 0 24 24h152a24.0275 24.0275 0 0 0 24-24v-19.71875l66.42188-44.28125h53.57812v24a8.00039 8.00039 0 0 0 8 8h40v71.55591a49.38946 49.38946 0 0 0 -37.9707 2.48511l-13.60742 6.80371a8.00022 8.00022 0 0 0 -4.42188 7.15527v16h-64.80493a40.06838 40.06838 0 0 0 -39.19507-32h-48a40 40 0 0 0 0 80h48a40.06838 40.06838 0 0 0 39.19507-32h64.80493v24a8.00039 8.00039 0 0 0 8 8h96a8.00039 8.00039 0 0 0 8-8v-64a8 8 0 0 0 -9.94043-7.76074l-17.24023 4.31054a33.158 33.158 0 0 1 -12.81934.63379v-77.18359h32a8.00039 8.00039 0 0 0 8-8v-64a8.00039 8.00039 0 0 0 -8-8zm-248-104h48a24 24 0 0 1 0 48h-48a24 24 0 0 1 0-48zm-193.75391 120h79.50782l-12 48h-79.50782zm201.75391 104h-152a8.00917 8.00917 0 0 1 -8-8v-32h32a7.99866 7.99866 0 0 0 7.76074-6.05957l6.48511-25.94043h55.33227l66.42188 44.28125v19.71875a8.00917 8.00917 0 0 1 -8 8zm16-41.61523-57.57812-38.38477 57.57812-38.38477 57.57812 38.38477zm16 137.61523h-48a24 24 0 0 1 0-48h48a24 24 0 0 1 0 48zm192.7002-43.92871 7.2998-1.8252v45.75391h-80v-43.05566l9.18555-4.59278a33.28129 33.28129 0 0 1 29.6289 0 49.15611 49.15611 0 0 0 33.88575 3.71973zm7.2998-108.07129h-72v-48h72z"/></svg>